<?xml version="1.0" encoding="utf-8"?>
<!-- Generator: Adobe Illustrator 16.0.0, SVG Export Plug-In . SVG Version: 6.00 Build 0)  -->
<!DOCTYPE svg PUBLIC "-//W3C//DTD SVG 1.1//EN" "http://www.w3.org/Graphics/SVG/1.1/DTD/svg11.dtd">
<svg version="1.1" id="Layer_1" xmlns="http://www.w3.org/2000/svg" xmlns:xlink="http://www.w3.org/1999/xlink" x="0px" y="0px"
	 width="376.026px" height="70.07px" viewBox="0 0 376.026 70.07" enable-background="new 0 0 376.026 70.07" xml:space="preserve">
<path fill="#010101" d="M24.435,27.826l-0.191,0.384l-9.179,18.355l18.74-9.37l-2.714-2.713l-0.219,0.219
	c-1.092,1.092-2.851,1.092-3.942,0c-1.092-1.091-1.092-2.851,0-3.943l0.218-0.218L24.435,27.826L24.435,27.826z M24.604,28.871
	l1.713,1.712c-1.104,1.337-1.075,3.305,0.175,4.556c1.251,1.25,3.219,1.279,4.556,0.174l1.712,1.712l-16.307,8.154L24.604,28.871
	L24.604,28.871z M43.174,18.458l-0.831,0.415l-17.908,8.954l2.713,2.714l0.22-0.22c1.091-1.091,2.852-1.091,3.943,0
	c1.09,1.091,1.09,2.852,0,3.943l-0.22,0.219l2.713,2.713L43.174,18.458L43.174,18.458z M29.118,3.393
	C13.052,3.393,0,16.444,0,32.511S13.052,61.63,29.118,61.63c16.068,0,29.12-13.052,29.12-29.119S45.187,3.393,29.118,3.393z
	 M28.074,5.896c-0.244,0.011-0.484,0.023-0.726,0.039C27.59,5.919,27.83,5.905,28.074,5.896z M30.165,5.896
	c0.243,0.01,0.483,0.023,0.725,0.039C30.648,5.919,30.408,5.906,30.165,5.896L30.165,5.896z M27.326,5.935l1.792,1.794l1.794-1.794
	c13.296,0.883,23.899,11.488,24.781,24.784l-1.792,1.792l1.792,1.792C54.812,47.6,44.208,58.205,30.91,59.085l-1.792-1.792
	l-1.791,1.792C14.03,58.205,3.427,47.6,2.545,34.303l1.792-1.792l-1.792-1.792C3.427,17.424,14.03,6.818,27.326,5.935L27.326,5.935z
	 M2.544,30.739c-0.015,0.234-0.027,0.468-0.038,0.703C2.516,31.207,2.529,30.973,2.544,30.739z M55.694,30.739
	c0.015,0.234,0.029,0.467,0.038,0.703C55.722,31.207,55.709,30.973,55.694,30.739z M2.506,33.582
	c0.011,0.234,0.023,0.468,0.038,0.701C2.529,34.05,2.516,33.816,2.506,33.582z M55.732,33.582c-0.009,0.235-0.023,0.468-0.038,0.701
	C55.709,34.05,55.722,33.816,55.732,33.582z M27.349,59.087c0.232,0.016,0.467,0.026,0.701,0.038
	C27.815,59.116,27.581,59.103,27.349,59.087z M30.89,59.087c-0.232,0.016-0.467,0.029-0.701,0.038
	C30.423,59.114,30.657,59.103,30.89,59.087z"/>
<text transform="matrix(1 0 0 1 66.2383 55.5747)" font-family="'Raleway'" font-size="65">UK-SIDAN</text>
</svg>
