<?xml version="1.0" encoding="utf-8"?>
<!-- Generator: Adobe Illustrator 16.0.0, SVG Export Plug-In . SVG Version: 6.00 Build 0)  -->
<!DOCTYPE svg PUBLIC "-//W3C//DTD SVG 1.1//EN" "http://www.w3.org/Graphics/SVG/1.1/DTD/svg11.dtd">
<svg version="1.1" id="Layer_1" xmlns="http://www.w3.org/2000/svg" xmlns:xlink="http://www.w3.org/1999/xlink" x="0px" y="0px"
	 width="58.238px" height="58.238px" viewBox="0 0 58.238 58.238" enable-background="new 0 0 58.238 58.238" xml:space="preserve">
<path fill="#010101" d="M24.435,24.433l-0.191,0.384l-9.179,18.356l18.74-9.371l-2.714-2.713l-0.219,0.219
	c-1.092,1.092-2.851,1.092-3.942,0c-1.092-1.091-1.092-2.851,0-3.943l0.218-0.218L24.435,24.433L24.435,24.433z M24.604,25.479
	l1.713,1.712c-1.104,1.337-1.075,3.305,0.175,4.556c1.251,1.25,3.219,1.278,4.556,0.175l1.712,1.711l-16.307,8.154L24.604,25.479
	L24.604,25.479z M43.174,15.065l-0.831,0.415l-17.908,8.954l2.713,2.714l0.22-0.22c1.091-1.091,2.852-1.091,3.943,0
	c1.09,1.091,1.09,2.852,0,3.943l-0.22,0.219l2.713,2.714L43.174,15.065L43.174,15.065z M29.118,0C13.052,0,0,13.051,0,29.119
	s13.052,29.119,29.118,29.119c16.068,0,29.12-13.052,29.12-29.119S45.187,0,29.118,0z M28.074,2.503
	c-0.244,0.011-0.484,0.023-0.726,0.039C27.59,2.526,27.83,2.513,28.074,2.503z M30.165,2.503c0.243,0.01,0.483,0.023,0.725,0.039
	C30.648,2.526,30.408,2.514,30.165,2.503L30.165,2.503z M27.326,2.542l1.792,1.794l1.794-1.794
	C44.208,3.425,54.812,14.03,55.693,27.327l-1.792,1.792l1.792,1.792C54.812,44.207,44.208,54.812,30.91,55.693l-1.792-1.792
	l-1.791,1.792C14.03,54.812,3.427,44.207,2.545,30.911l1.792-1.792l-1.792-1.792C3.427,14.031,14.03,3.425,27.326,2.542
	L27.326,2.542z M2.544,27.347c-0.015,0.234-0.027,0.468-0.038,0.703C2.516,27.814,2.529,27.581,2.544,27.347z M55.694,27.347
	c0.015,0.234,0.029,0.467,0.038,0.703C55.722,27.814,55.709,27.581,55.694,27.347z M2.506,30.189
	c0.011,0.234,0.023,0.469,0.038,0.701C2.529,30.658,2.516,30.423,2.506,30.189z M55.732,30.189
	c-0.009,0.234-0.023,0.469-0.038,0.701C55.709,30.658,55.722,30.423,55.732,30.189z M27.349,55.695
	c0.232,0.016,0.467,0.025,0.701,0.037C27.815,55.723,27.581,55.71,27.349,55.695z M30.89,55.695
	c-0.232,0.016-0.467,0.028-0.701,0.037C30.423,55.721,30.657,55.71,30.89,55.695z"/>
</svg>
