<svg xmlns="http://www.w3.org/2000/svg" version="1.1" viewBox="0 0 100 100" x="0px" y="0px"><path d="m42.4397 42.4376-0.310738 0.6201-14.8134 29.6267 30.2468-15.1241-4.37937-4.3794-0.353554 0.3536c-1.76154 1.7615-4.60241 1.7615-6.36396 0-1.76155-1.7616-1.76154-4.6025 0-6.364l0.353554-0.35356-4.37937-4.37936zm0.273451 1.68766 2.76352 2.76352c-1.78243 2.15804-1.73666 5.33444 0.281739 7.35284 2.01839 2.0184 5.19481 2.0641 7.35281 0.2817l2.76352 2.7635-26.3218 13.1602 13.1602-26.3218zm29.9713-16.8097-1.34102 0.66983-28.9044 14.4529 4.37937 4.37937 0.353554-0.35355c1.76154-1.76157 4.60242-1.76157 6.36398-0.00002 1.76156 1.76159 1.76155 4.60249-0.000014 6.36399l-0.353554 0.3535 4.37937 4.3794 15.1227-30.2454zm-22.6845-24.3156c-25.9337 0-47 21.0663-47 47s21.0663 47 47 47 47-21.0663 47-47-21.0663-47-47-47zm-1.6875 4.04102c-0.3909 0.017-0.7812 0.0369-1.1699 0.0625 0.3888-0.0255 0.7783-0.0474 1.1699-0.0625zm3.375 0c0.391558 0.0151 0.781138 0.037 1.16992 0.0625-0.3887-0.0256-0.779-0.0455-1.1699-0.0625zm-4.582 0.0644 2.8945 2.89453 2.8945-2.89453c21.4604 1.42379 38.5752 18.5413 39.998 40.002l-2.8925 2.8926 2.89258 2.8925c-1.42288 21.4614-18.5387 38.5772-40 40l-2.8926-2.8925-2.89258 2.8925c-21.4613-1.4228-38.5771-18.5386-40-40l2.8926-2.8925-2.89258-2.8926c1.42284-21.4606 18.5377-38.5782 39.9981-40.002zm-40 40.0352c-0.024787 0.37659-0.04337 0.75421-0.060547 1.13281 0.014947-0.3791 0.035873-0.75628 0.060547-1.13281zm85.7891 0c0.02467 0.37653 0.0456 0.75371 0.06055 1.13281-0.01718-0.3786-0.03576-0.75622-0.06055-1.13281zm-85.8497 4.5859c0.017177 0.3786 0.03576 0.7562 0.060547 1.1328-0.024674-0.3765-0.0456-0.7536-0.060547-1.1328zm85.9102 0c-0.01495 0.3792-0.03587 0.7563-0.06055 1.1328 0.02479-0.3766 0.04337-0.7542 0.06055-1.1328zm-45.8145 41.168c0.376591 0.025 0.754198 0.043 1.13281 0.061-0.379135-0.015-0.756282-0.036-1.13281-0.061zm5.71875 0c-0.376531 0.025-0.753678 0.046-1.13281 0.061 0.378615-0.017 0.756222-0.036 1.13281-0.061z" fill-rule="evenodd"></path></svg>