<svg xmlns="http://www.w3.org/2000/svg" xmlns:xlink="http://www.w3.org/1999/xlink" x="0px" y="0px"
	 width="217.689px" height="228px" viewBox="41.04 6 217.689 228" enable-background="new 41.04 6 217.689 228"
	 xml:space="preserve" fill="#c2185b">
<path d="M245.28,168.721h-52.56c-1.2,0-2.4-0.961-2.4-2.4c0-1.2,0.96-2.4,2.4-2.4h52.56c1.2,0,2.4,0.96,2.4,2.4
	C247.68,167.76,246.72,168.721,245.28,168.721z"/>
<path d="M245.28,181.2h-52.56c-1.2,0-2.4-0.96-2.4-2.4c0-1.2,0.96-2.399,2.4-2.399h52.56c1.2,0,2.4,0.959,2.4,2.399
	C247.68,180,246.72,181.2,245.28,181.2z"/>
<path d="M245.28,193.2h-52.56c-1.2,0-2.4-0.96-2.4-2.4s0.96-2.399,2.4-2.399h52.56c1.2,0,2.4,0.959,2.4,2.399
	S246.72,193.2,245.28,193.2z"/>
<path d="M245.28,204.96h-52.56c-1.2,0-2.4-0.96-2.4-2.399c0-1.201,0.96-2.4,2.4-2.4h52.56c1.2,0,2.4,0.96,2.4,2.4
	C247.68,204,246.72,204.96,245.28,204.96z"/>
<rect x="190.56" y="99.12" width="57.36" height="48.96"/>
<g>
	<rect x="61.2" y="43.68" width="70.079" height="64.56"/>
</g>
<path d="M250.08,71.76h-13.2V17.52C236.88,11.28,231.6,6,225.36,6H52.56c-6.24,0-11.52,5.28-11.52,11.52v156.72
	c0,6.24,5.279,11.52,11.52,11.52h126.96v39.6c0,4.801,3.84,8.641,8.641,8.641h61.92c4.8,0,8.64-3.84,8.64-8.641V80.4
	C258.96,75.6,254.88,71.76,250.08,71.76z M72.72,19.68h151.2c1.92,0,3.359,1.44,3.359,3.36s-1.439,3.36-3.359,3.36H72.72
	c-1.92,0-3.36-1.44-3.36-3.36S70.8,19.68,72.72,19.68z M58.8,17.28c3.12,0,5.76,2.64,5.76,5.76s-2.64,5.76-5.76,5.76
	s-5.76-2.64-5.76-5.76C53.28,19.68,55.68,17.28,58.8,17.28z M52.56,175.68c-0.72,0-1.439-0.72-1.439-1.439V38.16H226.8v33.6h-38.64
	c-4.801,0-8.641,3.84-8.641,8.64v4.56h-35.28c-1.92,0-3.359,1.44-3.359,3.36s1.439,3.36,3.359,3.36h35.28v9.12h-35.28
	c-1.92,0-3.359,1.44-3.359,3.36s1.439,3.36,3.359,3.36h35.28v9.12H64.8c-1.92,0-3.36,1.44-3.36,3.36s1.44,3.36,3.36,3.36h114.96
	v9.12H64.8c-1.92,0-3.36,1.44-3.36,3.36c0,1.92,1.44,3.36,3.36,3.36h114.96v9.12H64.8c-1.92,0-3.36,1.44-3.36,3.36
	c0,1.92,1.44,3.36,3.36,3.36h114.96v9.12H64.8c-1.92,0-3.36,1.439-3.36,3.359s1.44,3.36,3.36,3.36h114.96v6.479H52.56V175.68z
	 M219.12,230.16c-3.12,0-5.761-2.641-5.761-5.76c0-3.121,2.641-5.76,5.761-5.76s5.76,2.639,5.76,5.76
	C225.12,227.52,222.48,230.16,219.12,230.16z M253.44,213.359c0,0.721-0.479,1.201-1.199,1.201h-66c-0.721,0-1.2-0.48-1.2-1.201
	V92.4c0-0.72,0.479-1.2,1.2-1.2h66c0.72,0,1.199,0.48,1.199,1.2V213.359z"/>
</svg>
