<svg xmlns="http://www.w3.org/2000/svg" width="217.689" height="228" fill="#3d61a1" viewBox="41.04 6 217.689 228" enable-background="new 41.04 6 217.689 228"><path d="M245.28 168.72h-52.56c-1.2 0-2.4-.96-2.4-2.4 0-1.2.96-2.4 2.4-2.4h52.56c1.2 0 2.4.96 2.4 2.4s-.96 2.4-2.4 2.4zM245.28 181.2h-52.56c-1.2 0-2.4-.96-2.4-2.4 0-1.2.96-2.4 2.4-2.4h52.56c1.2 0 2.4.96 2.4 2.4 0 1.2-.96 2.4-2.4 2.4zM245.28 193.2h-52.56c-1.2 0-2.4-.96-2.4-2.4s.96-2.4 2.4-2.4h52.56c1.2 0 2.4.96 2.4 2.4s-.96 2.4-2.4 2.4zM245.28 204.96h-52.56c-1.2 0-2.4-.96-2.4-2.4 0-1.2.96-2.4 2.4-2.4h52.56c1.2 0 2.4.96 2.4 2.4s-.96 2.4-2.4 2.4zM190.56 99.12h57.36v48.96h-57.36zM61.2 43.68h70.08v64.56H61.2zM250.08 71.76h-13.2V17.52c0-6.24-5.28-11.52-11.52-11.52H52.56c-6.24 0-11.52 5.28-11.52 11.52v156.72c0 6.24 5.28 11.52 11.52 11.52h126.96v39.6c0 4.8 3.84 8.64 8.64 8.64h61.92c4.8 0 8.64-3.84 8.64-8.64V80.4c.24-4.8-3.84-8.64-8.64-8.64zM72.72 19.68h151.2c1.92 0 3.36 1.44 3.36 3.36s-1.44 3.36-3.36 3.36H72.72c-1.92 0-3.36-1.44-3.36-3.36s1.44-3.36 3.36-3.36zm-13.92-2.4c3.12 0 5.76 2.64 5.76 5.76s-2.64 5.76-5.76 5.76-5.76-2.64-5.76-5.76c.24-3.36 2.64-5.76 5.76-5.76zm-6.24 158.4c-.72 0-1.44-.72-1.44-1.44V38.16H226.8v33.6h-38.64c-4.8 0-8.64 3.84-8.64 8.64v4.56h-35.28c-1.92 0-3.36 1.44-3.36 3.36s1.44 3.36 3.36 3.36h35.28v9.12h-35.28c-1.92 0-3.36 1.44-3.36 3.36s1.44 3.36 3.36 3.36h35.28v9.12H64.8c-1.92 0-3.36 1.44-3.36 3.36s1.44 3.36 3.36 3.36h114.96v9.12H64.8c-1.92 0-3.36 1.44-3.36 3.36s1.44 3.36 3.36 3.36h114.96v9.12H64.8c-1.92 0-3.36 1.44-3.36 3.36s1.44 3.36 3.36 3.36h114.96v9.12H64.8c-1.92 0-3.36 1.44-3.36 3.36s1.44 3.36 3.36 3.36h114.96v6.48H52.56v-1.68zm166.56 54.48c-3.12 0-5.76-2.64-5.76-5.76 0-3.12 2.64-5.76 5.76-5.76s5.76 2.64 5.76 5.76c.24 3.12-2.4 5.76-5.76 5.76zm34.32-16.8c0 .72-.48 1.2-1.2 1.2h-66c-.72 0-1.2-.48-1.2-1.2V92.4c0-.72.48-1.2 1.2-1.2h66c.72 0 1.2.48 1.2 1.2v120.96z"/></svg>