<svg version="1.1" id="Layer_1" xmlns="http://www.w3.org/2000/svg" xmlns:xlink="http://www.w3.org/1999/xlink" x="0px" y="0px"
	viewBox="63.6 33.6 172.8 172.8" enable-background="new 63.6 33.6 172.8 172.8" fill="#3d61a1"
	 xml:space="preserve">
<g>
	<path d="M236.35,112.19c-0.26-3.768-2.914-8.021-6.298-9.915L212.4,92.501V33.6H87.6v58.903l-17.656,9.782
		c-3.377,1.886-6.029,6.137-6.291,9.902l-0.053-0.029v0.631v84.78c0,4.457,4.279,8.83,8.64,8.83h155.516
		c4.363,0,8.645-4.373,8.645-8.83v-84.78v-0.629L236.35,112.19z M150,161.261L92.4,128.654V38.4h115.2v90.262L150,161.261z
		 M68.4,114.888v-2.098c0-2.17,1.738-5.179,3.761-6.31L87.6,97.867v28.061L68.4,114.888z M231.6,114.891l-19.2,11.044v-28.08
		l15.438,8.616c2.027,1.135,3.763,4.147,3.763,6.319V114.891z"/>
</g>
</svg>
